<svg width="18" height="18" viewBox="0 0 18 18" fill="none" xmlns="http://www.w3.org/2000/svg"><path d="M16.714 11.993l-7.47-6.845c-.523-.494-1.161-.742-1.916-.742-.702 0-1.298.224-1.787.672-.488.447-.733.993-.733 1.637 0 .691.27 1.277.81 1.756l5.272 4.83a.41.41 0 00.283.117c.137 0 .338-.122.604-.365.266-.243.398-.428.398-.554a.347.347 0 00-.128-.259L6.776 7.41c-.215-.212-.322-.443-.322-.695 0-.228.082-.416.244-.565a.878.878 0 01.618-.224c.291 0 .548.094.771.283l7.47 6.844c.54.494.81 1.064.81 1.708 0 .503-.18.919-.54 1.248-.36.33-.814.495-1.363.495-.703 0-1.324-.247-1.864-.742L2.623 6.609c-.652-.597-.977-1.308-.977-2.132 0-.833.313-1.544.938-2.133.626-.588 1.393-.883 2.302-.883.874 0 1.65.302 2.327.907l7.791 7.15a.424.424 0 00.296.118c.137 0 .336-.12.598-.36.261-.239.392-.421.392-.547a.348.348 0 00-.129-.259L8.383 1.331C7.397.444 6.227 0 4.873 0 3.51 0 2.357.436 1.414 1.308.471 2.179 0 3.24 0 4.488c0 1.225.484 2.29 1.453 3.193l9.99 9.141A4.328 4.328 0 0014.464 18c1.003 0 1.843-.31 2.52-.93A3.005 3.005 0 0018 14.76c0-1.076-.429-1.998-1.286-2.767z" fill="#999"/></svg>