<svg width="15" height="19" viewBox="0 0 15 19" fill="none" xmlns="http://www.w3.org/2000/svg"><path d="M14.274 5.37v5.762a4.874 4.874 0 00-5.183 7.306l-.005.005H2.19A1.46 1.46 0 01.728 16.98V2.55a1.46 1.46 0 011.46-1.461h7.539l.03.03v2.79a1.46 1.46 0 001.46 1.46h3.057z" fill="#fff"/><path d="M12.768 18.569H2.231a1.505 1.505 0 01-1.505-1.505V1.936C.726 1.105 1.4.43 2.231.43H9.14c.384 0 .755.147 1.034.411l3.629 3.433c.3.285.47.68.47 1.094v11.695c0 .831-.674 1.505-1.505 1.505z" fill="#fff"/><path d="M11.999 8.645H3a.554.554 0 01-.564-.543c0-.3.253-.542.564-.542h9c.311 0 .564.242.564.542 0 .3-.253.543-.564.543zm0 2.893H3a.554.554 0 01-.564-.542c0-.3.253-.543.564-.543h9c.311 0 .564.243.564.543 0 .3-.253.542-.564.542zM6.097 14.43H3a.554.554 0 01-.564-.542c0-.3.253-.542.564-.542h3.097c.312 0 .565.243.565.542 0 .3-.253.543-.565.543z" fill="#1F5F98"/><path d="M14.274 4.625v.052h-3.056a1.46 1.46 0 01-1.461-1.461V.43l4.517 4.194z" fill="#00ACEA"/></svg>