<svg width="17" height="16" viewBox="0 0 17 16" fill="none" xmlns="http://www.w3.org/2000/svg"><path d="M16.39 13.904l-3.306-3.298a6.573 6.573 0 001.195-3.837c0-.916-.178-1.793-.535-2.63a6.764 6.764 0 00-1.446-2.163 6.788 6.788 0 00-2.17-1.442A6.686 6.686 0 007.491 0c-.919 0-1.798.178-2.637.534a6.786 6.786 0 00-2.17 1.442A6.766 6.766 0 001.239 4.14a6.636 6.636 0 00-.535 2.63c0 .916.179 1.792.535 2.63a6.765 6.765 0 001.447 2.162 6.788 6.788 0 002.17 1.443 6.687 6.687 0 002.636.534 6.616 6.616 0 003.847-1.193l3.308 3.289c.23.243.52.365.867.365.335 0 .624-.122.868-.365.244-.244.366-.532.366-.866 0-.34-.119-.628-.356-.865zm-5.847-4.092c-.845.844-1.863 1.265-3.052 1.265s-2.206-.422-3.051-1.265C3.594 8.97 3.172 7.955 3.172 6.77c0-1.186.422-2.2 1.268-3.043.845-.843 1.862-1.264 3.051-1.264 1.19 0 2.206.421 3.052 1.264.845.843 1.268 1.857 1.268 3.043 0 1.186-.423 2.2-1.268 3.043z" fill="#C4C4C4"/></svg>